<svg xmlns="http://www.w3.org/2000/svg" style="background: transparent; background-color: transparent; color-scheme: light dark;" xmlns:xlink="http://www.w3.org/1999/xlink" version="1.1" width="349px" height="179px" viewBox="-0.5 -0.5 349 179" content="&lt;mxfile&gt;&lt;diagram id=&quot;CpgS38QcigQapgQWJcTp&quot; name=&quot;Página-1&quot;&gt;7Vlbb5swFP41kbaHRphLLo8lDVulTarUhz1WLjhg1WBmnCbtr98xNiRcWnUN7boNmhT7s48v5zvn+EAmzirdfxE4T77ziLCJbUX7iXMxsW3XncF/BTwYAC01EAsaaQgdgGv6SAxoGXRLI1I0OkrOmaR5Ewx5lpFQNjAsBN81u204a86a45h0gOsQsy76g0Yy0ejCnh/wr4TGSTUzmpn9pbjqbHZSJDjiuyPIWU+cleBc6lK6XxGmdFfpRcsFT7TWCxMkky8RsLXAPWZbs7eJPWMg6m84jAALlA9m17OfW141nBUlJ+fQwbZzoNU/tEMpVvfzq8tqLJhfD6dbzNbrkW1J9gpPZMoAQFDEjMYZlEPYBxEA3BMhKTBwbhpSGkVK3N8lVJLrHIdqrB2YG2CCb7OIqC1a9XRqALJ/Uk2oVj4YLeEpkeIBuhgBxzF8VQZrqrsD+zMDJUfEV1LY2FtcD3ygBAqGlX6GZj0MtdRX3BEZJma3OaeZLOfzfPjAClb660HXlUKmttcD9mHzLoi63eCG+mZog33YvAuibjdVq1bdBPuwudddcVsa9UijljR8HJ9vJaMZWdWRxDIusOKMi1L/DvwFijx/Qxk7whcrNwiAZr+Qgt+Ro5ZNeUFLhIukNtTKxr/hW8KueEEl5crWb7mUPO1xAsnzPl858iO1UhM/kV3VjeWoKXGR621t6F6tw4eAlKvGdB+r0D3Fu8KdClLwrQjJZajW40NVl5q9cE5vYizJDj8M43Wus2x4HXK6bucuum5XYae43Xx0u7/V7dZz5M390e1e63Z1mvWc2/Wcdu4Ap93iN92uo8jSD4lY3xPtjkgrVydZVpv6I8qaxpLxTCUXrGUSnXTkVJtpma5locXios8eHreCTEOe5lslOADJVotku0syQj0sL5ens7wcWX4fljsn6HuyXI07nqF/5gwd1fkxUhKm3OoswuLu0yE7gXngqRKuIPj836QqAG1oPNDDwfIFWcobPRwgNEa2MbL9M+ocI9uHimz1q8Q6sqFOZKvyusbbxiFyNucFka2tpvKNur7dCL2eYx5eSa02nOr9ut1nSlZ5PWuUQXm1jXIAlhy7xVJfam15b/OYjNwTaWJk81FZCgLF02AseVOvydOsy9PSnQ5DFFQPv92UbUc/gDnrXw==&lt;/diagram&gt;&lt;/mxfile&gt;"><defs/><g><g><rect x="130" y="0" width="60" height="30" fill="none" stroke="none" pointer-events="all"/></g><g><g transform="translate(-0.5 -0.5)"><switch><foreignObject style="overflow: visible; text-align: left;" pointer-events="none" width="100%" height="100%" requiredFeatures="http://www.w3.org/TR/SVG11/feature#Extensibility"><div xmlns="http://www.w3.org/1999/xhtml" style="display: flex; align-items: unsafe center; justify-content: unsafe center; width: 58px; height: 1px; padding-top: 15px; margin-left: 131px;"><div style="box-sizing: border-box; font-size: 0; text-align: center; color: #000000; "><div style="display: inline-block; font-size: 12px; font-family: &quot;Helvetica&quot;; color: light-dark(#000000, #ffffff); line-height: 1.2; pointer-events: all; white-space: normal; word-wrap: normal; "><font style="font-size: 22px;">API</font></div></div></div></foreignObject><text x="160" y="19" fill="light-dark(#000000, #ffffff)" font-family="&quot;Helvetica&quot;" font-size="12px" text-anchor="middle">API</text></switch></g></g><g><path d="M 239 90 L 287 90 L 287 138 L 239 138 Z" fill="#8c4fff" stroke="none" pointer-events="all" style="fill: light-dark(rgb(140, 79, 255), rgb(177, 125, 255));"/><path d="M 258.93 124.73 L 260.94 124.73 L 260.94 123.35 L 258.93 123.35 Z M 262.31 124.73 L 264.37 124.73 L 264.37 123.35 L 262.31 123.35 Z M 254.09 96.64 L 245.19 101.06 L 245.19 128.54 L 254.09 131.55 Z M 255.46 105.38 L 255.46 123.35 L 257.52 123.35 L 257.52 124.73 L 255.46 124.73 L 255.46 132.51 C 255.46 132.73 255.36 132.94 255.18 133.07 C 255.06 133.16 254.92 133.2 254.78 133.2 C 254.71 133.2 254.63 133.19 254.56 133.16 L 244.28 129.69 C 244 129.59 243.82 129.33 243.82 129.03 L 243.82 100.63 C 243.82 100.36 243.97 100.12 244.2 100.01 L 254.48 94.91 C 254.69 94.8 254.94 94.81 255.14 94.94 C 255.34 95.06 255.46 95.29 255.46 95.53 L 255.46 104 L 257.52 104 L 257.52 105.38 Z M 265.74 124.73 L 267.8 124.73 L 267.8 123.35 L 265.74 123.35 Z M 265.78 105.38 L 267.8 105.38 L 267.8 104 L 265.78 104 Z M 262.36 105.38 L 264.37 105.38 L 264.37 104 L 262.36 104 Z M 258.93 105.38 L 260.94 105.38 L 260.94 104 L 258.93 104 Z M 280.81 101.06 L 271.91 96.64 L 271.91 131.55 L 280.81 128.54 Z M 282.18 129.03 C 282.18 129.33 282 129.59 281.72 129.69 L 271.44 133.16 C 271.37 133.19 271.29 133.2 271.22 133.2 C 271.08 133.2 270.94 133.16 270.82 133.07 C 270.64 132.94 270.54 132.73 270.54 132.51 L 270.54 124.73 L 269.21 124.73 L 269.21 123.35 L 270.54 123.35 L 270.54 105.38 L 269.21 105.38 L 269.21 104 L 270.54 104 L 270.54 95.53 C 270.54 95.29 270.66 95.06 270.86 94.94 C 271.06 94.81 271.31 94.8 271.52 94.91 L 281.8 100.01 C 282.03 100.12 282.18 100.36 282.18 100.63 Z M 265.01 109.77 L 263.73 109.28 L 260.3 118.26 L 261.58 118.76 Z M 269.65 114.16 C 269.92 113.89 269.92 113.45 269.65 113.18 L 266.91 110.42 L 265.94 111.4 L 268.2 113.67 L 265.94 115.95 L 266.91 116.92 Z M 259.09 116.92 L 256.35 114.16 C 256.08 113.89 256.08 113.45 256.35 113.18 L 259.09 110.42 L 260.06 111.4 L 257.8 113.67 L 260.06 115.95 Z" fill="#ffffff" stroke="none" pointer-events="all" style="fill: light-dark(rgb(255, 255, 255), rgb(18, 18, 18));"/></g><g><path d="M 10 90 L 50 90 L 50 130 L 10 130 Z" fill="#e7157b" stroke="none" pointer-events="all" style="fill: light-dark(rgb(231, 21, 123), rgb(255, 129, 217));"/><path d="M 26.61 118.94 L 28.29 118.94 L 28.29 117.79 L 26.61 117.79 Z M 29.43 118.94 L 31.14 118.94 L 31.14 117.79 L 29.43 117.79 Z M 22.58 95.53 L 15.16 99.21 L 15.16 122.11 L 22.58 124.62 Z M 23.72 102.82 L 23.72 117.79 L 25.43 117.79 L 25.43 118.94 L 23.72 118.94 L 23.72 125.42 C 23.72 125.61 23.63 125.78 23.48 125.89 C 23.38 125.96 23.27 126 23.15 126 C 23.09 126 23.03 125.99 22.97 125.97 L 14.4 123.07 C 14.17 123 14.01 122.78 14.01 122.53 L 14.01 98.86 C 14.01 98.64 14.14 98.44 14.33 98.34 L 22.9 94.09 C 23.07 94 23.28 94.01 23.45 94.12 C 23.62 94.22 23.72 94.41 23.72 94.6 L 23.72 101.67 L 25.43 101.67 L 25.43 102.82 Z M 32.28 118.94 L 34 118.94 L 34 117.79 L 32.28 117.79 Z M 32.32 102.82 L 34 102.82 L 34 101.67 L 32.32 101.67 Z M 29.47 102.82 L 31.14 102.82 L 31.14 101.67 L 29.47 101.67 Z M 26.61 102.82 L 28.29 102.82 L 28.29 101.67 L 26.61 101.67 Z M 44.84 99.21 L 37.42 95.53 L 37.42 124.62 L 44.84 122.11 Z M 45.99 122.53 C 45.99 122.78 45.83 123 45.6 123.07 L 37.03 125.97 C 36.97 125.99 36.91 126 36.85 126 C 36.73 126 36.62 125.96 36.52 125.89 C 36.37 125.78 36.28 125.61 36.28 125.42 L 36.28 118.94 L 35.18 118.94 L 35.18 117.79 L 36.28 117.79 L 36.28 102.82 L 35.18 102.82 L 35.18 101.67 L 36.28 101.67 L 36.28 94.6 C 36.28 94.41 36.38 94.22 36.55 94.12 C 36.72 94.01 36.93 94 37.1 94.09 L 45.67 98.34 C 45.86 98.44 45.99 98.64 45.99 98.86 Z M 31.68 106.48 L 30.61 106.07 L 27.75 113.55 L 28.82 113.96 Z M 35.54 110.13 C 35.77 109.91 35.77 109.54 35.54 109.32 L 33.26 107.02 L 32.45 107.83 L 34.33 109.73 L 32.45 111.62 L 33.26 112.44 Z M 26.74 112.44 L 24.46 110.13 C 24.23 109.91 24.23 109.54 24.46 109.32 L 26.74 107.02 L 27.55 107.83 L 25.67 109.73 L 27.55 111.62 Z" fill="#ffffff" stroke="none" pointer-events="all" style="fill: light-dark(rgb(255, 255, 255), rgb(18, 18, 18));"/></g><g><rect x="0" y="80" width="110" height="99" fill="none" stroke="none" pointer-events="all"/><path d="M 5.13 158.21 C 3.66 158.08 2.31 157.38 1.37 156.26 C 0.44 155.15 0 153.72 0.15 152.29 L 0.15 85.51 C 0.38 82.76 2.54 80.52 5.35 80.13 L 103.7 80.13 C 106.94 80 109.71 82.37 110 85.51 L 109.89 153.37 C 109.24 156.23 106.7 158.3 103.7 158.43 L 69.22 158.43 L 67.68 164.57 C 67.31 165.98 67.55 167.48 68.35 168.72 C 69.14 169.96 70.41 170.83 71.87 171.14 C 75.21 172.25 78.74 172.72 82.26 172.54 L 88.67 172.54 L 88.67 179 L 16.95 179 L 16.95 172.54 L 24.58 172.54 C 28.57 172.56 32.53 171.91 36.29 170.6 C 39.25 169.91 41.07 167.02 40.38 164.14 L 39.39 158.43 Z M 8.33 150.46 L 101.49 150.46 L 101.49 88.42 L 8.33 88.42 Z" fill="#00188d" stroke="none" pointer-events="all" style="fill: light-dark(rgb(0, 24, 141), rgb(191, 211, 255));"/></g><g><rect x="239" y="80" width="110" height="99" fill="none" stroke="none" pointer-events="all"/><path d="M 244.13 158.21 C 242.66 158.08 241.31 157.38 240.37 156.26 C 239.44 155.15 239 153.72 239.15 152.29 L 239.15 85.51 C 239.38 82.76 241.54 80.52 244.35 80.13 L 342.7 80.13 C 345.94 80 348.71 82.37 349 85.51 L 348.89 153.37 C 348.24 156.23 345.7 158.3 342.7 158.43 L 308.22 158.43 L 306.68 164.57 C 306.31 165.98 306.55 167.48 307.35 168.72 C 308.14 169.96 309.41 170.83 310.87 171.14 C 314.21 172.25 317.74 172.72 321.26 172.54 L 327.67 172.54 L 327.67 179 L 255.95 179 L 255.95 172.54 L 263.58 172.54 C 267.57 172.56 271.53 171.91 275.29 170.6 C 278.25 169.91 280.07 167.02 279.38 164.14 L 278.39 158.43 Z M 247.33 150.46 L 340.49 150.46 L 340.49 88.42 L 247.33 88.42 Z" fill="#00188d" stroke="none" pointer-events="all" style="fill: light-dark(rgb(0, 24, 141), rgb(191, 211, 255));"/></g><g><path d="M 290 90 L 338 90 L 338 138 L 290 138 Z" fill="#e7157b" stroke="none" pointer-events="all" style="fill: light-dark(rgb(231, 21, 123), rgb(51, 51, 255));"/><path d="M 327.18 119.01 L 328.52 119.48 L 327.68 121.91 C 327.58 122.2 327.31 122.39 327.01 122.39 C 326.98 122.39 326.95 122.39 326.92 122.38 L 324.2 122.05 L 324.37 120.64 L 325.91 120.83 C 325.31 119.88 324.17 119.28 322.8 119.28 C 321.01 119.28 319.66 120.26 319.35 121.78 L 317.96 121.49 C 318.41 119.29 320.31 117.87 322.8 117.87 C 324.55 117.87 326.02 118.61 326.91 119.8 Z M 326.25 123.81 L 327.64 124.09 C 327.19 126.28 325.25 127.74 322.8 127.74 C 321.21 127.74 319.8 127.06 318.9 125.96 L 318.76 126.62 L 317.37 126.33 L 317.93 123.68 C 318.01 123.3 318.38 123.06 318.76 123.13 L 321.33 123.64 L 321.06 125.03 L 319.77 124.77 C 320.39 125.72 321.51 126.33 322.8 126.33 C 324.58 126.33 325.94 125.34 326.25 123.81 Z M 331.79 124.03 L 330.93 123.98 C 330.59 123.96 330.28 124.19 330.2 124.53 C 330.02 125.36 329.69 126.15 329.23 126.88 C 329.05 127.17 329.1 127.55 329.36 127.78 L 330 128.35 L 328.35 130 L 327.78 129.36 C 327.55 129.1 327.17 129.05 326.88 129.24 C 326.15 129.69 325.36 130.02 324.53 130.21 C 324.19 130.29 323.96 130.59 323.98 130.94 L 324.03 131.79 L 321.69 131.79 L 321.74 130.94 C 321.76 130.59 321.53 130.28 321.19 130.21 C 320.36 130.02 319.57 129.69 318.85 129.23 C 318.55 129.05 318.17 129.1 317.94 129.36 L 317.37 130 L 315.73 128.35 L 316.36 127.78 C 316.62 127.55 316.67 127.17 316.49 126.88 C 316.03 126.15 315.7 125.36 315.52 124.53 C 315.44 124.19 315.12 123.95 314.79 123.98 L 313.94 124.03 L 313.94 121.7 L 314.79 121.74 C 315.1 121.76 315.44 121.53 315.52 121.19 C 315.71 120.36 316.04 119.57 316.49 118.85 C 316.68 118.56 316.62 118.17 316.37 117.95 L 315.73 117.37 L 317.37 115.73 L 317.94 116.36 C 318.17 116.62 318.56 116.68 318.85 116.49 C 319.57 116.04 320.36 115.71 321.19 115.52 C 321.53 115.45 321.76 115.14 321.74 114.79 L 321.69 113.94 L 324.03 113.94 L 323.98 114.79 C 323.96 115.14 324.19 115.45 324.53 115.52 C 325.36 115.71 326.15 116.04 326.87 116.49 C 327.16 116.68 327.55 116.62 327.78 116.37 L 328.35 115.73 L 330 117.37 L 329.36 117.94 C 329.1 118.17 329.05 118.56 329.23 118.85 C 329.69 119.57 330.02 120.36 330.2 121.19 C 330.28 121.53 330.61 121.76 330.93 121.74 L 331.79 121.7 Z M 332.98 120.43 C 332.84 120.3 332.64 120.23 332.45 120.24 L 331.43 120.3 C 331.26 119.72 331.02 119.15 330.73 118.61 L 331.5 117.93 C 331.64 117.8 331.73 117.62 331.73 117.42 C 331.74 117.23 331.66 117.04 331.53 116.9 L 328.82 114.2 C 328.68 114.06 328.5 113.98 328.3 113.99 C 328.1 114 327.92 114.08 327.79 114.23 L 327.11 114.99 C 326.57 114.7 326.01 114.47 325.42 114.3 L 325.48 113.27 C 325.49 113.08 325.42 112.88 325.29 112.74 C 325.16 112.6 324.97 112.52 324.78 112.52 L 320.95 112.52 C 320.75 112.52 320.57 112.6 320.43 112.74 C 320.3 112.88 320.23 113.08 320.24 113.27 L 320.3 114.29 C 319.71 114.47 319.15 114.7 318.62 114.99 L 317.93 114.23 C 317.8 114.08 317.62 114 317.42 113.99 C 317.23 113.98 317.04 114.06 316.9 114.2 L 314.2 116.9 C 314.06 117.04 313.98 117.23 313.99 117.42 C 314 117.62 314.08 117.8 314.23 117.93 L 314.99 118.62 C 314.7 119.15 314.47 119.72 314.29 120.3 L 313.27 120.24 C 313.08 120.23 312.88 120.3 312.74 120.43 C 312.6 120.57 312.52 120.75 312.52 120.95 L 312.52 124.78 C 312.52 124.97 312.6 125.16 312.74 125.29 C 312.88 125.42 313.08 125.49 313.27 125.48 L 314.29 125.42 C 314.46 126.01 314.7 126.57 314.99 127.11 L 314.23 127.79 C 314.08 127.92 314 128.1 313.99 128.3 C 313.98 128.49 314.06 128.68 314.2 128.82 L 316.9 131.53 C 317.04 131.66 317.24 131.74 317.42 131.73 C 317.62 131.73 317.8 131.64 317.93 131.5 L 318.61 130.74 C 319.15 131.03 319.71 131.26 320.3 131.44 L 320.24 132.45 C 320.23 132.65 320.3 132.84 320.43 132.98 C 320.57 133.12 320.75 133.2 320.95 133.2 L 324.78 133.2 C 324.97 133.2 325.16 133.12 325.29 132.98 C 325.42 132.84 325.49 132.65 325.48 132.45 L 325.42 131.44 C 326.01 131.26 326.57 131.03 327.11 130.74 L 327.79 131.5 C 327.92 131.64 328.1 131.73 328.3 131.73 C 328.5 131.74 328.68 131.66 328.82 131.53 L 331.53 128.82 C 331.66 128.68 331.74 128.49 331.73 128.3 C 331.73 128.1 331.64 127.92 331.5 127.79 L 330.73 127.11 C 331.02 126.57 331.26 126.01 331.43 125.42 L 332.45 125.48 C 332.64 125.49 332.84 125.42 332.98 125.29 C 333.12 125.16 333.2 124.97 333.2 124.78 L 333.2 120.95 C 333.2 120.75 333.12 120.57 332.98 120.43 Z M 296.21 124.51 L 310.36 124.51 L 310.36 125.92 L 295.51 125.92 C 295.12 125.92 294.8 125.6 294.8 125.21 L 294.8 95.51 C 294.8 95.12 295.12 94.8 295.51 94.8 L 328.04 94.8 C 328.43 94.8 328.75 95.12 328.75 95.51 L 328.75 111.07 L 327.34 111.07 L 327.34 96.21 L 296.21 96.21 Z M 319.56 104.7 L 318.85 104.7 L 318.85 103.29 L 319.56 103.29 L 322.38 103.29 L 323.09 103.29 L 323.09 104.7 L 322.38 104.7 Z M 320.26 101.87 L 320.26 99.04 L 321.68 99.04 L 321.68 101.87 Z M 323.09 111.07 L 323.09 106.12 L 323.8 106.12 C 324.19 106.12 324.51 105.8 324.51 105.41 L 324.51 102.58 C 324.51 102.19 324.19 101.87 323.8 101.87 L 323.09 101.87 L 323.09 98.34 C 323.09 97.95 322.78 97.63 322.38 97.63 L 319.56 97.63 C 319.16 97.63 318.85 97.95 318.85 98.34 L 318.85 101.87 L 318.14 101.87 C 317.75 101.87 317.43 102.19 317.43 102.58 L 317.43 105.41 C 317.43 105.8 317.75 106.12 318.14 106.12 L 318.85 106.12 L 318.85 111.07 L 320.26 111.07 L 320.26 106.12 L 321.68 106.12 L 321.68 111.07 Z M 309.65 112.48 L 308.95 112.48 L 308.95 111.07 L 309.65 111.07 L 312.48 111.07 L 313.19 111.07 L 313.19 112.48 L 312.48 112.48 Z M 310.36 109.65 L 310.36 99.04 L 311.77 99.04 L 311.77 109.65 Z M 313.19 115.31 L 313.19 113.9 L 313.9 113.9 C 314.29 113.9 314.6 113.58 314.6 113.19 L 314.6 110.36 C 314.6 109.97 314.29 109.65 313.9 109.65 L 313.19 109.65 L 313.19 98.34 C 313.19 97.95 312.87 97.63 312.48 97.63 L 309.65 97.63 C 309.26 97.63 308.95 97.95 308.95 98.34 L 308.95 109.65 L 308.24 109.65 C 307.85 109.65 307.53 109.97 307.53 110.36 L 307.53 113.19 C 307.53 113.58 307.85 113.9 308.24 113.9 L 308.95 113.9 L 308.95 121.68 L 310.36 121.68 L 310.36 113.9 L 311.77 113.9 L 311.77 115.31 Z M 299.04 105.41 L 299.75 105.41 L 302.58 105.41 L 303.29 105.41 L 303.29 106.82 L 302.58 106.82 L 299.75 106.82 L 299.04 106.82 Z M 300.46 103.99 L 300.46 99.04 L 301.87 99.04 L 301.87 103.99 Z M 300.46 120.26 L 300.46 108.24 L 301.87 108.24 L 301.87 120.26 Z M 299.75 121.68 L 302.58 121.68 C 302.97 121.68 303.29 121.36 303.29 120.97 L 303.29 108.24 L 303.99 108.24 C 304.39 108.24 304.7 107.92 304.7 107.53 L 304.7 104.7 C 304.7 104.31 304.39 103.99 303.99 103.99 L 303.29 103.99 L 303.29 98.34 C 303.29 97.95 302.97 97.63 302.58 97.63 L 299.75 97.63 C 299.36 97.63 299.04 97.95 299.04 98.34 L 299.04 103.99 L 298.34 103.99 C 297.95 103.99 297.63 104.31 297.63 104.7 L 297.63 107.53 C 297.63 107.92 297.95 108.24 298.34 108.24 L 299.04 108.24 L 299.04 120.97 C 299.04 121.36 299.36 121.68 299.75 121.68 Z" fill="#ffffff" stroke="none" pointer-events="all" style="fill: light-dark(rgb(255, 255, 255), rgb(18, 18, 18));"/></g><g><path d="M 60 91 L 99 91 L 99 130 L 60 130 Z" fill="#e7157b" stroke="none" pointer-events="all" style="fill: light-dark(rgb(231, 21, 123), rgb(51, 51, 255));"/><path d="M 90.21 114.57 L 91.3 114.95 L 90.61 116.93 C 90.53 117.16 90.31 117.32 90.07 117.32 C 90.05 117.32 90.02 117.32 90 117.31 L 87.79 117.04 L 87.93 115.9 L 89.18 116.05 C 88.69 115.28 87.76 114.79 86.65 114.79 C 85.2 114.79 84.1 115.59 83.84 116.82 L 82.72 116.59 C 83.08 114.8 84.63 113.64 86.65 113.64 C 88.07 113.64 89.27 114.24 89.99 115.22 Z M 89.46 118.47 L 90.58 118.7 C 90.22 120.47 88.64 121.67 86.65 121.67 C 85.36 121.67 84.22 121.11 83.48 120.22 L 83.37 120.75 L 82.24 120.52 L 82.7 118.37 C 82.76 118.06 83.06 117.86 83.37 117.92 L 85.46 118.33 L 85.24 119.46 L 84.19 119.25 C 84.69 120.03 85.6 120.52 86.65 120.52 C 88.1 120.52 89.2 119.71 89.46 118.47 Z M 93.95 118.65 L 93.26 118.61 C 92.98 118.59 92.73 118.78 92.67 119.06 C 92.51 119.73 92.25 120.37 91.88 120.96 C 91.73 121.2 91.77 121.51 91.98 121.7 L 92.5 122.16 L 91.16 123.5 L 90.7 122.98 C 90.51 122.77 90.2 122.73 89.96 122.88 C 89.37 123.25 88.73 123.52 88.05 123.67 C 87.78 123.73 87.59 123.98 87.61 124.26 L 87.65 124.95 L 85.75 124.95 L 85.79 124.26 C 85.81 123.98 85.62 123.73 85.34 123.67 C 84.67 123.52 84.03 123.25 83.44 122.88 C 83.2 122.73 82.89 122.77 82.7 122.98 L 82.24 123.5 L 80.9 122.16 L 81.42 121.7 C 81.63 121.51 81.67 121.2 81.52 120.96 C 81.15 120.37 80.88 119.73 80.73 119.05 C 80.67 118.78 80.41 118.59 80.14 118.61 L 79.45 118.65 L 79.45 116.75 L 80.14 116.79 C 80.4 116.8 80.67 116.62 80.73 116.35 C 80.89 115.67 81.15 115.03 81.53 114.44 C 81.68 114.2 81.63 113.89 81.42 113.71 L 80.9 113.24 L 82.24 111.9 L 82.7 112.42 C 82.89 112.63 83.2 112.67 83.44 112.53 C 84.03 112.15 84.67 111.89 85.34 111.74 C 85.62 111.67 85.81 111.42 85.79 111.14 L 85.75 110.45 L 87.65 110.45 L 87.61 111.14 C 87.59 111.42 87.78 111.68 88.05 111.74 C 88.73 111.89 89.37 112.16 89.96 112.53 C 90.19 112.68 90.51 112.63 90.69 112.42 L 91.16 111.9 L 92.5 113.24 L 91.98 113.7 C 91.77 113.89 91.73 114.2 91.88 114.44 C 92.25 115.03 92.51 115.67 92.67 116.35 C 92.73 116.62 92.99 116.8 93.26 116.79 L 93.95 116.75 Z M 94.92 115.73 C 94.81 115.62 94.65 115.56 94.49 115.57 L 93.66 115.62 C 93.52 115.14 93.33 114.68 93.1 114.25 L 93.72 113.69 C 93.83 113.59 93.9 113.44 93.91 113.28 C 93.91 113.12 93.85 112.97 93.74 112.86 L 91.54 110.66 C 91.43 110.55 91.28 110.48 91.12 110.49 C 90.96 110.5 90.81 110.57 90.7 110.68 L 90.15 111.31 C 89.71 111.07 89.26 110.88 88.78 110.74 L 88.83 109.91 C 88.84 109.75 88.78 109.59 88.67 109.48 C 88.56 109.36 88.41 109.3 88.26 109.3 L 85.14 109.3 C 84.99 109.3 84.84 109.36 84.73 109.48 C 84.62 109.59 84.56 109.75 84.57 109.91 L 84.62 110.74 C 84.14 110.88 83.69 111.07 83.25 111.31 L 82.69 110.68 C 82.59 110.57 82.44 110.5 82.28 110.49 C 82.12 110.48 81.97 110.55 81.86 110.66 L 79.66 112.86 C 79.55 112.97 79.49 113.12 79.49 113.28 C 79.5 113.44 79.57 113.59 79.68 113.69 L 80.31 114.25 C 80.07 114.69 79.88 115.14 79.74 115.62 L 78.91 115.57 C 78.75 115.56 78.59 115.62 78.48 115.73 C 78.36 115.84 78.3 115.99 78.3 116.14 L 78.3 119.26 C 78.3 119.41 78.36 119.56 78.48 119.67 C 78.59 119.78 78.75 119.84 78.91 119.83 L 79.73 119.78 C 79.88 120.26 80.07 120.72 80.3 121.15 L 79.68 121.7 C 79.57 121.81 79.5 121.96 79.49 122.12 C 79.49 122.28 79.55 122.43 79.66 122.54 L 81.86 124.74 C 81.97 124.85 82.14 124.91 82.28 124.91 C 82.44 124.9 82.59 124.83 82.69 124.72 L 83.25 124.1 C 83.68 124.33 84.14 124.52 84.62 124.67 L 84.57 125.49 C 84.56 125.65 84.62 125.81 84.73 125.92 C 84.84 126.04 84.99 126.1 85.14 126.1 L 88.26 126.1 C 88.41 126.1 88.56 126.04 88.67 125.92 C 88.78 125.81 88.84 125.65 88.83 125.49 L 88.78 124.67 C 89.26 124.53 89.72 124.34 90.15 124.1 L 90.7 124.72 C 90.81 124.83 90.96 124.9 91.12 124.91 C 91.28 124.91 91.43 124.85 91.54 124.74 L 93.74 122.54 C 93.85 122.43 93.91 122.28 93.91 122.12 C 93.9 121.96 93.83 121.81 93.72 121.7 L 93.1 121.15 C 93.33 120.72 93.52 120.26 93.66 119.78 L 94.49 119.83 C 94.65 119.84 94.81 119.78 94.92 119.67 C 95.04 119.56 95.1 119.41 95.1 119.26 L 95.1 116.14 C 95.1 115.99 95.04 115.84 94.92 115.73 Z M 65.05 119.04 L 76.54 119.04 L 76.54 120.19 L 64.47 120.19 C 64.16 120.19 63.9 119.93 63.9 119.61 L 63.9 95.47 C 63.9 95.16 64.16 94.9 64.47 94.9 L 90.91 94.9 C 91.23 94.9 91.48 95.16 91.48 95.47 L 91.48 108.12 L 90.34 108.12 L 90.34 96.05 L 65.05 96.05 Z M 84.01 102.95 L 83.44 102.95 L 83.44 101.8 L 84.01 101.8 L 86.31 101.8 L 86.89 101.8 L 86.89 102.95 L 86.31 102.95 Z M 84.59 100.65 L 84.59 98.35 L 85.74 98.35 L 85.74 100.65 Z M 86.89 108.12 L 86.89 104.09 L 87.46 104.09 C 87.78 104.09 88.04 103.84 88.04 103.52 L 88.04 101.22 C 88.04 100.9 87.78 100.65 87.46 100.65 L 86.89 100.65 L 86.89 97.77 C 86.89 97.46 86.63 97.2 86.31 97.2 L 84.01 97.2 C 83.7 97.2 83.44 97.46 83.44 97.77 L 83.44 100.65 L 82.86 100.65 C 82.55 100.65 82.29 100.9 82.29 101.22 L 82.29 103.52 C 82.29 103.84 82.55 104.09 82.86 104.09 L 83.44 104.09 L 83.44 108.12 L 84.59 108.12 L 84.59 104.09 L 85.74 104.09 L 85.74 108.12 Z M 75.97 109.27 L 75.39 109.27 L 75.39 108.12 L 75.97 108.12 L 78.27 108.12 L 78.84 108.12 L 78.84 109.27 L 78.27 109.27 Z M 76.54 106.97 L 76.54 98.35 L 77.69 98.35 L 77.69 106.97 Z M 78.84 111.57 L 78.84 110.42 L 79.42 110.42 C 79.73 110.42 79.99 110.16 79.99 109.84 L 79.99 107.54 C 79.99 107.23 79.73 106.97 79.42 106.97 L 78.84 106.97 L 78.84 97.77 C 78.84 97.46 78.58 97.2 78.27 97.2 L 75.97 97.2 C 75.65 97.2 75.39 97.46 75.39 97.77 L 75.39 106.97 L 74.82 106.97 C 74.5 106.97 74.24 107.23 74.24 107.54 L 74.24 109.84 C 74.24 110.16 74.5 110.42 74.82 110.42 L 75.39 110.42 L 75.39 116.74 L 76.54 116.74 L 76.54 110.42 L 77.69 110.42 L 77.69 111.57 Z M 67.35 103.52 L 67.92 103.52 L 70.22 103.52 L 70.8 103.52 L 70.8 104.67 L 70.22 104.67 L 67.92 104.67 L 67.35 104.67 Z M 68.5 102.37 L 68.5 98.35 L 69.65 98.35 L 69.65 102.37 Z M 68.5 115.59 L 68.5 105.82 L 69.65 105.82 L 69.65 115.59 Z M 67.92 116.74 L 70.22 116.74 C 70.54 116.74 70.8 116.48 70.8 116.16 L 70.8 105.82 L 71.37 105.82 C 71.69 105.82 71.95 105.56 71.95 105.24 L 71.95 102.95 C 71.95 102.63 71.69 102.37 71.37 102.37 L 70.8 102.37 L 70.8 97.77 C 70.8 97.46 70.54 97.2 70.22 97.2 L 67.92 97.2 C 67.6 97.2 67.35 97.46 67.35 97.77 L 67.35 102.37 L 66.77 102.37 C 66.46 102.37 66.2 102.63 66.2 102.95 L 66.2 105.24 C 66.2 105.56 66.46 105.82 66.77 105.82 L 67.35 105.82 L 67.35 116.16 C 67.35 116.48 67.6 116.74 67.92 116.74 Z" fill="#ffffff" stroke="none" pointer-events="all" style="fill: light-dark(rgb(255, 255, 255), rgb(18, 18, 18));"/></g><g><path d="M 120 91.43 L 183.54 91.43 L 183.54 80 L 225 100 L 183.54 120 L 183.54 108.57 L 120 108.57 Z" fill="#ffffff" stroke="#000000" stroke-width="2" stroke-miterlimit="10" pointer-events="all" style="fill: light-dark(rgb(255, 255, 255), rgb(51, 51, 255)); stroke: light-dark(rgb(0, 0, 0), rgb(237, 237, 237));"/></g><g><path d="M 220 131.43 L 162.82 131.43 L 162.82 120 L 125.5 140 L 162.82 160 L 162.82 148.57 L 220 148.57 Z" fill="#ffffff" stroke="#000000" stroke-width="2" stroke-miterlimit="10" pointer-events="all" style="fill: light-dark(rgb(255, 255, 255), rgb(255, 51, 51)); stroke: light-dark(rgb(0, 0, 0), rgb(237, 237, 237));"/></g></g><switch><g requiredFeatures="http://www.w3.org/TR/SVG11/feature#Extensibility"/><a transform="translate(0,-5)" xlink:href="https://www.drawio.com/doc/faq/svg-export-text-problems" target="_blank"><text text-anchor="middle" font-size="10px" x="50%" y="100%">Text is not SVG - cannot display</text></a></switch></svg>